{"title":"The Foreigner 2017 1080p BluRay 6CH AAC x264 - EiE","magnet":"magnet:?xt=urn:btih:bc6c487eab0b5b6345cf1cbf2a1e25ce22aaefa1&dn=The+Foreigner+2017+1080p+BluRay+6CH+AAC+x264+-+EiE&tr=udp%3A%2F%2Ftracker.leechers-paradise.org%3A6969&tr=udp%3A%2F%2Fzer0day.ch%3A1337&tr=udp%3A%2F%2Fopen.demonii.com%3A1337&tr=udp%3A%2F%2Ftracker.coppersurfer.tk%3A6969&tr=udp%3A%2F%2Fexodus.desync.com%3A6969","uploader":"samcode4u","categoryP":"video","categoryS":"hd___movies","size":"1928343827","seeders":"1","leechers":"161","description":"The Foreigner 2017 1080p BluRay 6CH AAC x264 - EiE\r\n <a href=\"\nhttps://www.imdb.com/title/tt1615160/\" rel=\"nofollow\" target=\"_NEW\">\nhttps://www.imdb.com/title/tt1615160/</a>\r\n\r\n\r\nScreenshots:\r\n <a href=\"\nhttps://lensdump.com/i/OwZH1\" rel=\"nofollow\" target=\"_NEW\">\nhttps://lensdump.com/i/OwZH1</a>\r\n <a href=\"\nhttps://lensdump.com/i/Owgcc\" rel=\"nofollow\" target=\"_NEW\">\nhttps://lensdump.com/i/Owgcc</a>\r\n <a href=\"\nhttps://lensdump.com/i/OwtgK\" rel=\"nofollow\" target=\"_NEW\">\nhttps://lensdump.com/i/OwtgK</a>\r\n <a href=\"\nhttps://lensdump.com/i/Ow13Z\" rel=\"nofollow\" target=\"_NEW\">\nhttps://lensdump.com/i/Ow13Z</a>\r\n\r\n\r\nVideo\r\nID                                       : 1\r\nFormat                                   : AVC\r\nFormat/Info                              : Advanced Video Codec\r\nFormat settings                          : CABAC / 4 Ref Frames\r\nFormat settings, CABAC                   : Yes\r\nFormat settings, RefFrames               : 4 frames\r\nCodec ID                                 : avc1\r\nCodec ID/Info                            : Advanced Video Coding\r\nDuration                                 : 1 h 53 min\r\nBit rate                                 : 2 043 kb/s\r\nMaximum bit rate                         : 16.2 Mb/s\r\nWidth                                    : 1 912 pixels\r\nHeight                                   : 800 pixels\r\nDisplay aspect ratio                     : 2.40:1\r\nFrame rate mode                          : Constant\r\nFrame rate                               : 23.976\r\nColor space                              : YUV\r\nChroma subsampling                       : 4:2:0\r\nBit depth                                : 8 bits\r\nScan type                                : Progressive\r\nBits/(Pixel*Frame)                       : 0.056\r\nStream size                              : 1.62 GiB (90%)\r\n\r\nAudio\r\nID                                       : 2\r\nFormat                                   : AAC\r\nFormat/Info                              : Advanced Audio Codec\r\nFormat profile                           : LC\r\nCodec ID                                 : mp4a-40-2\r\nDuration                                 : 1 h 53 min\r\nBit rate mode                            : Variable\r\nBit rate                                 : 217 kb/s\r\nMaximum bit rate                         : 366 kb/s\r\nChannel(s)                               : 6 channels\r\nChannel positions                        : Front: L C R, Side: L R, LFE\r\nSampling rate                            : 48.0 kHz\r\nFrame rate                               : 46.875 FPS (1024 SPF)\r\nCompression mode                         : Lossy\r\nStream size                              : 177 MiB (10%)\r\nLanguage                                 : English","last_updated":"2017-12-29T12:06:17.878Z","parsed":{"xt":"urn:btih:bc6c487eab0b5b6345cf1cbf2a1e25ce22aaefa1","dn":"The Foreigner 2017 1080p BluRay 6CH AAC x264 - EiE","tr":["udp://exodus.desync.com:6969","udp://open.demonii.com:1337","udp://tracker.coppersurfer.tk:6969","udp://tracker.leechers-paradise.org:6969","udp://zer0day.ch:1337"],"infoHash":"bc6c487eab0b5b6345cf1cbf2a1e25ce22aaefa1","infoHashBuffer":{"type":"Buffer","data":[188,108,72,126,171,11,91,99,69,207,28,191,42,30,37,206,34,170,239,161]},"name":"The Foreigner 2017 1080p BluRay 6CH AAC x264 - EiE","announce":["udp://exodus.desync.com:6969","udp://open.demonii.com:1337","udp://tracker.coppersurfer.tk:6969","udp://tracker.leechers-paradise.org:6969","udp://zer0day.ch:1337"],"urlList":[]}}